PathFileType	4	(x/y/z)	S05_M20_T05
DataRate	CameraRate	NumFrames	NumMarkers	Units	OrigDataRate	OrigDataStartFrame	OrigNumFrames
240	240	5	50	mm	240	198	527
Frame#	Time	Sternum			R.Acromium			L.Acromium			Top.Head			R.ASIS			L.ASIS			R.PSIS			L.PSIS			R.Great.Tro			L.Great.Tro			R.Iliac.Crest			L.Iliac.Crest			V.Sacral			R.Thigh.Upper.Post			R.Thigh.Lower.Ant			R.Thigh.Lower.Post			R.Thigh.Upper.Ant			R.Knee.Lat			R.Knee.Med			R.Shank.Upper.Post			R.Shank.Lower.Ant			R.Shank.Lower.Post			R.Shank.Upper.Ant			R.Ankle.Lat			R.Ankle.Med			R.Heel.Upper			R.Heel.Med			R.Heel.Lat			R.Toe.Lat			R.Toe.Med			R.Toe.Tip			L.Thigh.Upper.Post			L.Thigh.Lower.Ant			L.Thigh.Lower.Post			L.Thigh.Upper.Ant			L.Knee.Lat			L.Shank.Upper.Post			L.Shank.Lower.Ant			L.Shank.Lower.Post			L.Shank.Upper.Ant			L.Ankle.Lat			L.Ankle.Med			L.Heel.Upper			L.Heel.Med			L.Heel.Lat			L.Toe.Lat			L.Toe.Med			L.Toe.Tip			Cervical.Spine			Back			
		X1	Y1	Z1	X2	Y2	Z2	X3	Y3	Z3	X4	Y4	Z4	X5	Y5	Z5	X6	Y6	Z6	X7	Y7	Z7	X8	Y8	Z8	X9	Y9	Z9	X10	Y10	Z10	X11	Y11	Z11	X12	Y12	Z12	X13	Y13	Z13	X14	Y14	Z14	X15	Y15	Z15	X16	Y16	Z16	X17	Y17	Z17	X18	Y18	Z18	X19	Y19	Z19	X20	Y20	Z20	X21	Y21	Z21	X22	Y22	Z22	X23	Y23	Z23	X24	Y24	Z24	X25	Y25	Z25	X26	Y26	Z26	X27	Y27	Z27	X28	Y28	Z28	X29	Y29	Z29	X30	Y30	Z30	X31	Y31	Z31	X32	Y32	Z32	X33	Y33	Z33	X34	Y34	Z34	X35	Y35	Z35	X36	Y36	Z36	X37	Y37	Z37	X38	Y38	Z38	X39	Y39	Z39	X40	Y40	Z40	X41	Y41	Z41	X42	Y42	Z42	X43	Y43	Z43	X44	Y44	Z44	X45	Y45	Z45	X46	Y46	Z46	X47	Y47	Z47	X48	Y48	Z48	X49	Y49	Z49	X50	Y50	Z50	

198	0.82083	247.45	1210.8	318	180.01	1453.6	515.55	146.5	1513.1	191.75	144.75	1763.2	402.92	177.91	956.32	438.9	161.57	955.96	190.36	-29.441	984.81	372.58	-31.1	992.61	280.74	107.85	885.53	513.4	45.464	894.75	124.67	96.362	1042.2	488.02	74.816	1044.6	153.6	-44.919	953.78	338.6	247.87	694.13	508.53	315.78	649.45	446.13	269.96	608.65	485.88	288.89	732.56	468.25	298.03	523.81	469.07	303.74	511.26	338.07	285.07	271.27	454.67	361.82	223.06	456.09	303.68	198.2	437.75	343.22	297.46	471.38	367.54	119.81	439.21	386.12	149.76	353.81	321.96	66.554	373.06	337.81	36.361	345.39	330.71	38.859	410.82	491.24	50.778	472.99	530.6	70.107	359.4	584.35	101.95	408.35	-41.604	674.6	136.68	7.1186	576.56	149.98	-64.811	583.04	152.11	35.455	661.39	131.73	-95.199	497.54	157.51	-265.19	375.53	168.11	-249.04	288.39	167.37	-309.14	320.45	189.46	-208.15	344.71	152.88	-368.9	192.69	197.09	-327.86	181.29	279.45	-441.91	182.78	255.74	-443.53	156.4	288.57	-457.46	159.59	228.32	-324.33	50.812	159.53	-290.08	47.098	276.39	-238.04	40.01	219.69	104.11	1515.8	369.74	-24.191	1244.1	340.87
199	0.825	253.6	1211.5	319.16	185.91	1454	516.92	153.04	1514	193.2	150.8	1763.8	404.84	183.51	957.32	439.8	167.72	956.5	191.26	-23.716	985.7	372.78	-25.194	993.3	280.91	113.3	886.65	514.03	51.815	894.81	125.25	101.66	1043.1	488.64	81.192	1045.2	154.2	-39.14	954.6	338.82	253.22	695.08	509.21	321.15	650.3	446.93	275.24	609.57	486.64	294.34	733.46	469.01	303.01	524.42	469.97	308.56	511.91	339.02	288.1	271.87	455.65	364.51	223.02	456.71	306.07	198.69	438.57	346.6	297.57	472.14	369.06	119.68	439.62	387.88	149.72	354.31	322.81	67.267	373.34	338.29	36.962	345.54	331.22	39.309	410.98	492.04	49.194	473.08	531.57	68.315	359.39	585.83	99.239	408.41	-34.025	673.92	136.95	15.387	576.18	150.02	-56.591	582.15	152.13	43.133	661.3	132.12	-86.61	496.89	157.17	-257.96	377.24	168.48	-243.03	289.89	167.24	-302.49	322.68	189.93	-201.47	345.71	152.67	-364.01	195.89	197.38	-322.51	183.4	279.29	-436.15	187.83	256.45	-438.35	161.68	289.39	-452.6	165.07	229.16	-323.36	52.342	159.79	-288.57	47.939	276.32	-237.46	39.62	219.5	110.2	1516.4	371.13	-18.136	1244.9	341.29
200	0.82917	259.69	1212.2	320.31	191.77	1454.4	518.27	159.55	1514.9	194.64	156.84	1764.4	406.73	189.1	958.37	440.68	173.8	957.12	192.15	-18.006	986.62	373.02	-19.337	994.02	281.12	118.75	887.78	514.66	58.126	894.91	125.86	106.95	1044	489.27	87.468	1045.9	154.81	-33.387	955.46	339.08	258.52	695.99	509.92	326.47	651.1	447.77	280.45	610.45	487.42	299.76	734.3	469.8	307.92	525.02	470.86	313.31	512.56	339.95	291.06	272.47	456.63	367.12	223	457.31	308.38	199.19	439.39	349.9	297.68	472.89	370.48	119.57	440.02	389.52	149.7	354.81	323.58	67.926	373.62	338.72	37.532	345.69	331.69	39.722	411.14	492.77	47.726	473.15	532.44	66.644	359.35	587.17	96.684	408.43	-26.325	673.21	137.18	23.836	575.8	150	-48.191	581.21	152.09	50.938	661.22	132.48	-77.779	496.2	156.79	-250.46	378.96	168.83	-236.76	291.42	167.12	-295.58	324.94	190.41	-194.53	346.72	152.46	-358.88	199.2	197.71	-316.91	185.59	279.18	-430.07	193.03	257.22	-432.85	167.12	290.27	-447.43	170.73	230.06	-322.25	54.075	160.09	-286.89	48.935	276.26	-236.79	39.241	219.29	116.24	1517.1	372.5	-12.122	1245.8	341.73
201	0.83333	265.72	1213	321.45	197.57	1455	519.6	166.01	1515.9	196.05	162.87	1765	408.59	194.7	959.46	441.54	179.81	957.81	193.02	-12.312	987.56	373.31	-13.532	994.76	281.37	124.21	888.93	515.28	64.391	895.03	126.48	112.22	1045	489.91	93.639	1046.6	155.44	-27.661	956.33	339.4	263.77	696.86	510.66	331.72	651.82	448.62	285.57	611.28	488.21	305.15	735.08	470.62	312.76	525.6	471.73	317.97	513.18	340.86	293.95	273.07	457.61	369.64	222.97	457.9	310.61	199.69	440.2	353.12	297.79	473.63	371.82	119.48	440.41	391.06	149.69	355.29	324.29	68.53	373.9	339.12	38.068	345.85	332.12	40.101	411.3	493.43	46.369	473.22	533.21	65.084	359.28	588.39	94.278	408.41	-18.508	672.46	137.34	32.459	575.42	149.94	-39.615	580.24	152.01	58.865	661.15	132.79	-68.711	495.47	156.37	-242.69	380.69	169.18	-230.24	292.96	167.02	-288.4	327.23	190.88	-187.33	347.72	152.27	-353.49	202.62	198.08	-311.08	187.87	279.12	-423.69	198.36	258.05	-427.06	172.7	291.2	-441.95	176.55	231.03	-321	56.027	160.43	-285.01	50.099	276.23	-235.99	38.884	219.08	122.24	1517.9	373.84	-6.1512	1246.7	342.18
202	0.8375	271.7	1213.9	322.56	203.32	1455.6	520.9	172.42	1517	197.44	168.89	1765.7	410.42	200.3	960.57	442.38	185.76	958.57	193.89	-6.6367	988.51	373.65	-7.78	995.52	281.69	129.68	890.06	515.9	70.609	895.19	127.14	117.47	1045.9	490.56	99.7	1047.4	156.09	-21.963	957.23	339.77	268.97	697.66	511.42	336.89	652.47	449.49	290.59	612.04	489.01	310.51	735.79	471.47	317.5	526.15	472.58	322.53	513.76	341.74	296.77	273.67	458.56	372.07	222.94	458.46	312.75	200.18	440.99	356.24	297.89	474.35	373.08	119.4	440.77	392.5	149.69	355.74	324.93	69.08	374.17	339.47	38.567	346	332.52	40.445	411.45	494.03	45.123	473.26	533.9	63.627	359.17	589.5	92.015	408.34	-10.576	671.69	137.46	41.247	575.04	149.82	-30.871	579.22	151.86	66.909	661.1	133.05	-59.416	494.69	155.91	-234.65	382.42	169.51	-223.46	294.53	166.96	-280.95	329.55	191.36	-179.88	348.72	152.09	-347.84	206.14	198.48	-305.01	190.24	279.1	-417	203.81	258.93	-420.95	178.4	292.19	-436.17	182.53	232.04	-319.56	58.21	160.82	-282.91	51.445	276.21	-235.05	38.566	218.84	128.18	1518.7	375.15	-0.22501	1247.6	342.65
